<svg width="30" height="18" viewBox="0 0 30 18" fill="none" xmlns="http://www.w3.org/2000/svg">
<path d="M27.4122 4.28124C27.1603 2.7981 25.4431 1.64996 23.3603 1.64996C23.2734 1.64996 23.1878 1.65341 23.1022 1.65732C23.5356 2.20079 23.7856 2.83307 23.7856 3.50769C23.7856 3.6982 23.5759 3.85282 23.3169 3.85282C23.0581 3.85282 22.8481 3.69843 22.8481 3.50769C22.8481 1.8667 21.035 0.531963 18.8066 0.531963C18.7991 0.531963 18.7922 0.530582 18.785 0.530352C17.9528 0.533574 17.1797 0.719024 16.535 1.0354C15.7425 0.398972 14.6044 0 13.3397 0C12.2872 0 11.3234 0.276796 10.5731 0.736281C11.3641 1.0752 12.03 1.57449 12.4791 2.19711C12.6003 2.3653 12.5134 2.57422 12.285 2.66373C12.215 2.69111 12.1397 2.70422 12.0656 2.70422C11.8978 2.70422 11.7356 2.63773 11.6512 2.52084C11.1341 1.80366 10.2644 1.28665 9.2525 1.06024C8.91937 0.997661 8.57125 0.963608 8.21156 0.963608C6.20187 0.963608 4.52187 1.99877 4.09812 3.38413C2.21969 3.65472 0.801875 4.8728 0.801875 6.33524C0.801875 6.79518 0.944375 7.22982 1.195 7.61959C1.82625 7.30552 2.56281 7.09752 3.3575 7.03286C3.63438 7.01032 3.87594 7.17161 3.87594 7.37662C3.87594 7.55171 3.69781 7.69943 3.46156 7.71853C1.51469 7.87591 0 9.091 0 10.5666C0 12.0973 1.63 13.3476 3.68187 13.4284H8.54031C8.76562 13.4284 8.9725 13.5395 9.01688 13.702C9.07719 13.9238 8.84844 14.1184 8.55812 14.1184H5.51781C5.53562 15.2638 6.80156 16.1885 8.36156 16.1885H9.85156V18H12.1197L15.8219 13.9141C16.3156 14.0489 16.8491 14.1228 17.4056 14.1228C19.7687 14.1228 21.7181 12.795 21.9506 11.0994C22.7466 11.0994 25.3525 11.1052 25.4397 11.1052C27.9581 11.1052 30 9.6018 30 7.74729C30 6.4848 29.5178 5.4066 27.4122 4.28124ZM12.1609 11.2126C12.0919 11.2391 12.0175 11.2518 11.9447 11.2518C11.7756 11.2518 11.6125 11.1841 11.5287 11.0661C11.1544 10.5373 10.1259 10.3938 9.70531 10.3565C8.99219 11.0681 7.84594 11.5309 6.55531 11.5309C6.29656 11.5309 6.08656 11.3765 6.08656 11.1857C6.08656 10.995 6.29625 10.8406 6.55531 10.8406C8.19656 10.8406 9.53156 9.85742 9.53156 8.64923C9.53156 8.45872 9.74125 8.3041 10.0003 8.3041C10.2594 8.3041 10.4691 8.45849 10.4691 8.64923C10.4691 9.02543 10.3697 9.38459 10.1906 9.71431C10.8612 9.81256 11.8809 10.0707 12.36 10.7472C12.4797 10.9161 12.3906 11.1245 12.1609 11.2126ZM18.5469 7.76684C18.5556 7.97899 18.3025 8.14626 18.0166 8.11865C17.785 8.09633 17.6178 7.9516 17.6094 7.77973C17.5919 7.41435 17.4212 7.06255 17.1128 6.76665C16.7213 6.39092 16.1544 6.15002 15.5169 6.08835C15.0669 6.04464 14.6106 6.09618 14.2019 6.23377C14.1491 6.25149 14.0978 6.27196 14.0472 6.29313C13.8369 6.3808 13.1063 6.65782 12.2191 6.65782C11.9541 6.65782 11.6869 6.63665 11.4219 6.59363C10.4634 6.43832 9.64469 6.01749 9.11625 5.40867C8.96781 5.23749 9.05 5.00648 9.30406 4.9133C9.52094 4.83368 9.78469 4.89926 9.91656 5.04905C10.3106 5.49588 10.9178 5.79913 11.6234 5.91993C12.6262 6.09157 13.6772 5.65395 13.6856 5.64981C14.5578 5.23933 15.0369 4.51294 14.9359 3.75388C14.9106 3.56429 15.0991 3.39541 15.3566 3.377C15.6131 3.3579 15.8434 3.49711 15.8684 3.6867C15.9494 4.2962 15.75 4.88914 15.3275 5.3859C15.4312 5.38866 15.5353 5.39441 15.6387 5.40453C16.2678 5.46551 16.8466 5.65234 17.3244 5.94225C17.9556 5.67051 18.3734 5.19216 18.4388 4.64754C18.4603 4.46923 18.6484 4.31875 18.8916 4.31323C19.1756 4.30678 19.3966 4.48257 19.375 4.68528C19.2969 5.41466 18.7719 6.06189 17.9662 6.45972C18.3288 6.84925 18.5275 7.3 18.5469 7.76684ZM21.1381 9.72029C20.8794 9.72029 20.6694 9.5659 20.6694 9.37516C20.6694 9.18465 20.8791 9.03003 21.1381 9.03003C22.7794 9.03003 24.1144 8.04686 24.1144 6.83867C24.1144 6.64816 24.3241 6.49354 24.5831 6.49354C24.8422 6.49354 25.0519 6.64793 25.0519 6.83867C25.0516 8.42766 23.2959 9.72029 21.1381 9.72029Z" fill="#69C7E4"/>
</svg>
