<svg width="30" height="19" viewBox="0 0 30 19" fill="none" xmlns="http://www.w3.org/2000/svg">
<path fill-rule="evenodd" clip-rule="evenodd" d="M15 0C19.9951 1.71724 25.0002 3.4078 30 5.11116L25.8373 6.52945V13.1632H27.0606V16.3638H23.8596V13.1632H25.0828V6.78641L15 10.222L0 5.11116L15 0V0ZM22.3584 12.6524C22.3584 15.631 19.9236 18.0654 16.945 18.0654H13.1774C10.1985 18.0654 7.76444 15.6314 7.76444 12.6524C7.76444 11.0089 7.74095 10.5918 8.18156 9.0336L15 11.3566L21.9209 8.99765C22.3847 10.5761 22.3584 10.9843 22.3584 12.6524ZM20.8632 10.9213L15 12.9183L9.25604 10.9615L9.24643 12.6524C9.24643 14.8131 11.0167 16.5834 13.1774 16.5834H16.945C19.1057 16.5834 20.8764 14.8135 20.8764 12.6524L20.8632 10.9213Z" fill="#69C7E4"/>
</svg>
