<svg width="380" height="47" viewBox="0 0 380 47" fill="none" xmlns="http://www.w3.org/2000/svg">
<path d="M10.872 5.73599C15.256 5.73599 18.664 6.64799 21.096 8.47199C23.528 10.296 24.744 13 24.744 16.584C24.744 20.328 23.544 23.16 21.144 25.08C18.776 26.968 15.592 27.912 11.592 27.912H7.992V39H0.119995V5.73599H10.872ZM10.92 22.248C12.776 22.248 14.184 21.816 15.144 20.952C16.136 20.056 16.632 18.6 16.632 16.584C16.632 13.096 14.68 11.352 10.776 11.352H7.992V22.248H10.92Z" fill="#1B1B1B"/>
<path d="M49.5281 25.752C49.5281 26.808 49.4801 27.72 49.3841 28.488H33.5921C33.8481 30.632 34.4561 32.136 35.4161 33C36.3761 33.864 37.7041 34.296 39.4001 34.296C40.4241 34.296 41.4161 34.12 42.3761 33.768C43.3361 33.384 44.3761 32.808 45.4961 32.04L48.6161 36.264C45.6401 38.632 42.3281 39.816 38.6801 39.816C34.5521 39.816 31.3841 38.6 29.1761 36.168C26.9681 33.736 25.8641 30.472 25.8641 26.376C25.8641 23.784 26.3281 21.464 27.2561 19.416C28.1841 17.336 29.5441 15.704 31.3361 14.52C33.1281 13.304 35.2721 12.696 37.7681 12.696C41.4481 12.696 44.3281 13.848 46.4081 16.152C48.4881 18.456 49.5281 21.656 49.5281 25.752ZM42.0881 23.592C42.0241 19.688 40.6481 17.736 37.9601 17.736C36.6481 17.736 35.6241 18.216 34.8881 19.176C34.1841 20.136 33.7521 21.72 33.5921 23.928H42.0881V23.592Z" fill="#1B1B1B"/>
<path d="M76.6365 3.38399V39H69.9165L69.5325 36.024C67.7405 38.552 65.3245 39.816 62.2845 39.816C59.1165 39.816 56.7005 38.6 55.0365 36.168C53.4045 33.736 52.5885 30.408 52.5885 26.184C52.5885 23.592 53.0205 21.272 53.8845 19.224C54.7485 17.176 55.9645 15.576 57.5325 14.424C59.1325 13.272 60.9565 12.696 63.0045 12.696C65.4365 12.696 67.4525 13.496 69.0525 15.096V2.56799L76.6365 3.38399ZM64.6365 34.248C66.3965 34.248 67.8685 33.288 69.0525 31.368V20.376C68.4445 19.64 67.8205 19.096 67.1805 18.744C66.5725 18.392 65.8685 18.216 65.0685 18.216C63.6605 18.216 62.5405 18.872 61.7085 20.184C60.8765 21.496 60.4605 23.512 60.4605 26.232C60.4605 29.208 60.8125 31.288 61.5165 32.472C62.2525 33.656 63.2925 34.248 64.6365 34.248Z" fill="#1B1B1B"/>
<path d="M96.3937 12.792C97.3217 12.792 98.1697 12.904 98.9377 13.128L97.7377 20.472C96.7777 20.248 96.0097 20.136 95.4337 20.136C93.9297 20.136 92.7777 20.664 91.9777 21.72C91.2097 22.744 90.6017 24.296 90.1537 26.376V39H82.5697V13.512H89.1937L89.8177 18.456C90.3937 16.696 91.2577 15.32 92.4097 14.328C93.5937 13.304 94.9217 12.792 96.3937 12.792Z" fill="#1B1B1B"/>
<path d="M111.422 12.696C115.326 12.696 118.382 13.896 120.59 16.296C122.798 18.664 123.902 21.992 123.902 26.28C123.902 29 123.39 31.384 122.366 33.432C121.374 35.448 119.934 37.016 118.046 38.136C116.19 39.256 113.982 39.816 111.422 39.816C107.55 39.816 104.494 38.632 102.254 36.264C100.046 33.864 98.9422 30.52 98.9422 26.232C98.9422 23.512 99.4382 21.144 100.43 19.128C101.454 17.08 102.894 15.496 104.75 14.376C106.638 13.256 108.862 12.696 111.422 12.696ZM111.422 18.264C109.886 18.264 108.734 18.92 107.966 20.232C107.198 21.512 106.814 23.512 106.814 26.232C106.814 29.016 107.182 31.048 107.918 32.328C108.686 33.608 109.854 34.248 111.422 34.248C112.958 34.248 114.11 33.608 114.878 32.328C115.646 31.016 116.03 29 116.03 26.28C116.03 23.496 115.646 21.464 114.878 20.184C114.142 18.904 112.99 18.264 111.422 18.264Z" fill="#1B1B1B"/>
<path d="M160.588 36.84C162.668 36.84 164.476 37.096 166.012 37.608C167.548 38.088 169.02 38.84 170.428 39.864L165.676 46.056C163.852 44.008 161.98 42.424 160.06 41.304C158.14 40.216 155.756 39.672 152.908 39.672C149.932 39.672 147.356 39 145.18 37.656C143.004 36.28 141.324 34.296 140.14 31.704C138.988 29.112 138.412 25.992 138.412 22.344C138.412 18.76 139.004 15.656 140.188 13.032C141.404 10.408 143.132 8.40799 145.372 7.03199C147.612 5.62399 150.284 4.91999 153.388 4.91999C158.124 4.91999 161.804 6.43999 164.428 9.47999C167.084 12.52 168.412 16.808 168.412 22.344C168.412 29.128 165.804 33.96 160.588 36.84ZM146.668 22.344C146.668 26.44 147.228 29.416 148.348 31.272C149.468 33.128 151.148 34.056 153.388 34.056C155.692 34.056 157.388 33.144 158.476 31.32C159.596 29.464 160.156 26.472 160.156 22.344C160.156 18.216 159.596 15.24 158.476 13.416C157.356 11.592 155.66 10.68 153.388 10.68C151.116 10.68 149.42 11.608 148.3 13.464C147.212 15.288 146.668 18.248 146.668 22.344Z" fill="#1B1B1B"/>
<path d="M194.449 39H187.873L187.537 35.784C185.681 38.472 183.105 39.816 179.809 39.816C177.473 39.816 175.697 39.112 174.481 37.704C173.297 36.296 172.705 34.328 172.705 31.8V13.512H180.289V30.84C180.289 32.088 180.481 32.968 180.865 33.48C181.281 33.96 181.905 34.2 182.737 34.2C184.337 34.2 185.713 33.208 186.865 31.224V13.512H194.449V39Z" fill="#1B1B1B"/>
<path d="M207.997 13.512V39H200.413V13.512H207.997ZM204.158 0.071991C205.47 0.071991 206.541 0.487991 207.373 1.31999C208.237 2.11999 208.669 3.14399 208.669 4.39199C208.669 5.63999 208.237 6.67999 207.373 7.51199C206.541 8.31199 205.47 8.71199 204.158 8.71199C202.846 8.71199 201.773 8.31199 200.941 7.51199C200.109 6.67999 199.693 5.63999 199.693 4.39199C199.693 3.14399 200.109 2.11999 200.941 1.31999C201.773 0.487991 202.846 0.071991 204.158 0.071991Z" fill="#1B1B1B"/>
<path d="M228.888 12.696C231.096 12.696 232.824 13.368 234.072 14.712C235.32 16.056 235.944 17.944 235.944 20.376V39H228.36V21.672C228.36 20.392 228.152 19.512 227.736 19.032C227.352 18.52 226.76 18.264 225.96 18.264C224.424 18.264 222.952 19.368 221.544 21.576V39H213.96V13.512H220.584L221.112 16.536C222.2 15.256 223.368 14.296 224.616 13.656C225.896 13.016 227.32 12.696 228.888 12.696Z" fill="#1B1B1B"/>
<path d="M257.647 37.8C256.719 38.44 255.631 38.936 254.383 39.288C253.167 39.64 251.951 39.816 250.735 39.816C245.167 39.784 242.383 36.712 242.383 30.6V18.792H238.783V13.512H242.383V7.99199L249.967 7.12799V13.512H255.824L255.007 18.792H249.967V30.504C249.967 31.688 250.16 32.536 250.544 33.048C250.928 33.56 251.535 33.816 252.367 33.816C253.231 33.816 254.144 33.544 255.104 33L257.647 37.8Z" fill="#1B1B1B"/>
<path d="M267.763 13.512V39H260.179V13.512H267.763ZM263.923 0.071991C265.235 0.071991 266.307 0.487991 267.139 1.31999C268.003 2.11999 268.435 3.14399 268.435 4.39199C268.435 5.63999 268.003 6.67999 267.139 7.51199C266.307 8.31199 265.235 8.71199 263.923 8.71199C262.611 8.71199 261.539 8.31199 260.707 7.51199C259.875 6.67999 259.459 5.63999 259.459 4.39199C259.459 3.14399 259.875 2.11999 260.707 1.31999C261.539 0.487991 262.611 0.071991 263.923 0.071991Z" fill="#1B1B1B"/>
<path d="M280.494 39.816C278.286 39.816 276.558 39.192 275.31 37.944C274.094 36.664 273.486 34.856 273.486 32.52V3.38399L281.07 2.56799V32.232C281.07 33.288 281.502 33.816 282.366 33.816C282.814 33.816 283.23 33.736 283.614 33.576L285.102 38.952C283.726 39.528 282.19 39.816 280.494 39.816Z" fill="#1B1B1B"/>
<path d="M295.56 13.512V39H287.976V13.512H295.56ZM291.72 0.071991C293.032 0.071991 294.104 0.487991 294.936 1.31999C295.8 2.11999 296.232 3.14399 296.232 4.39199C296.232 5.63999 295.8 6.67999 294.936 7.51199C294.104 8.31199 293.032 8.71199 291.72 8.71199C290.408 8.71199 289.336 8.31199 288.504 7.51199C287.672 6.67999 287.256 5.63999 287.256 4.39199C287.256 3.14399 287.672 2.11999 288.504 1.31999C289.336 0.487991 290.408 0.071991 291.72 0.071991Z" fill="#1B1B1B"/>
<path d="M321.779 31.608C321.779 32.568 321.907 33.272 322.163 33.72C322.451 34.168 322.899 34.504 323.507 34.728L321.923 39.672C320.355 39.544 319.075 39.208 318.083 38.664C317.091 38.088 316.323 37.192 315.779 35.976C314.115 38.536 311.555 39.816 308.099 39.816C305.571 39.816 303.555 39.08 302.051 37.608C300.547 36.136 299.795 34.216 299.795 31.848C299.795 29.064 300.819 26.936 302.867 25.464C304.915 23.992 307.875 23.256 311.747 23.256H314.339V22.152C314.339 20.648 314.019 19.624 313.379 19.08C312.739 18.504 311.619 18.216 310.019 18.216C309.187 18.216 308.179 18.344 306.995 18.6C305.811 18.824 304.595 19.144 303.347 19.56L301.619 14.568C303.219 13.96 304.851 13.496 306.515 13.176C308.211 12.856 309.779 12.696 311.219 12.696C314.867 12.696 317.539 13.448 319.235 14.952C320.931 16.456 321.779 18.712 321.779 21.72V31.608ZM310.307 34.392C312.035 34.392 313.379 33.576 314.339 31.944V27.432H312.467C310.739 27.432 309.443 27.736 308.579 28.344C307.747 28.952 307.331 29.896 307.331 31.176C307.331 32.2 307.587 33 308.099 33.576C308.643 34.12 309.379 34.392 310.307 34.392Z" fill="#1B1B1B"/>
<path d="M342.748 12.696C344.956 12.696 346.684 13.368 347.932 14.712C349.18 16.056 349.804 17.944 349.804 20.376V39H342.22V21.672C342.22 20.392 342.012 19.512 341.596 19.032C341.212 18.52 340.62 18.264 339.82 18.264C338.284 18.264 336.812 19.368 335.404 21.576V39H327.82V13.512H334.444L334.972 16.536C336.06 15.256 337.228 14.296 338.476 13.656C339.756 13.016 341.18 12.696 342.748 12.696Z" fill="#1B1B1B"/>
<path d="M366.563 12.696C370.467 12.696 373.523 13.896 375.731 16.296C377.939 18.664 379.043 21.992 379.043 26.28C379.043 29 378.531 31.384 377.507 33.432C376.515 35.448 375.075 37.016 373.187 38.136C371.331 39.256 369.123 39.816 366.563 39.816C362.691 39.816 359.635 38.632 357.395 36.264C355.187 33.864 354.083 30.52 354.083 26.232C354.083 23.512 354.579 21.144 355.571 19.128C356.595 17.08 358.035 15.496 359.891 14.376C361.779 13.256 364.003 12.696 366.563 12.696ZM366.563 18.264C365.027 18.264 363.875 18.92 363.107 20.232C362.339 21.512 361.955 23.512 361.955 26.232C361.955 29.016 362.323 31.048 363.059 32.328C363.827 33.608 364.995 34.248 366.563 34.248C368.099 34.248 369.251 33.608 370.019 32.328C370.787 31.016 371.171 29 371.171 26.28C371.171 23.496 370.787 21.464 370.019 20.184C369.283 18.904 368.131 18.264 366.563 18.264Z" fill="#1B1B1B"/>
</svg>
